# AST/ASF file generated using VICON BodyLanguage
# -----------------------------------------------
:version 1.10
:name VICON
:units
  mass 1.0
  length 0.45
  angle deg
:documentation
   .ast/.asf automatically generated from VICON data using
   VICON BodyBuilder and BodyLanguage model FoxedUp or BRILLIANT.MOD
:root
   order TX TY TZ RX RY RZ
   axis XYZ
   position 0 0 0  
   orientation 0 0 0 
:bonedata
  begin
     id 1 
     name lhipjoint
     direction 0.714689 -0.624256 0.315473 
     length 2.45343 
     axis 0 0 0  XYZ
  end
  begin
     id 2 
     name lfemur
     direction 0.34202 -0.939693 0  
     length 6.59069  
     axis 0 0 20  XYZ
    dof rx ry rz
    limits (-160.0 20.0)
           (-70.0 70.0)
           (-60.0 70.0)
  end
  begin
     id 3 
     name ltibia
     direction 0.34202 -0.939693 0   
     length 6.73476   
     axis 0 0 20   XYZ
    dof rx
    limits (-10.0 170.0)
  end
  begin
     id 4 
     name lfoot
     direction 0.0718085 -0.197292 0.977711   
     length 1.52607   
     axis -90 7.62852e-016 20   XYZ
    dof rx rz
    limits (-45.0 90.0)
           (-70.0 20.0)
  end
  begin
     id 5 
     name ltoes
     direction 1.53553e-011 -4.22024e-011 1   
     length 0.777832   
     axis -90 7.62852e-016 20   XYZ
    dof rx
    limits (-90.0 20.0)
  end
  begin
     id 6 
     name rhipjoint
     direction -0.727419 -0.612432 0.309497   
     length 2.50079  
     axis 0 0 0  XYZ 
  end
  begin
     id 7 
     name rfemur
     direction -0.34202 -0.939693 0   
     length 6.51665   
     axis 0 0 -20   XYZ
    dof rx ry rz
    limits (-160.0 20.0)
           (-70.0 70.0)
           (-70.0 60.0)
  end
  begin
     id 8 
     name rtibia
     direction -0.34202 -0.939693 0   
     length 6.48919   
     axis 0 0 -20   XYZ
    dof rx
    limits (-10.0 170.0)
 end
 begin
     id 9 
     name rfoot
     direction -0.112205 -0.308282 0.944655   
     length 1.68717  
     axis -90 -7.62852e-016 -20   XYZ
    dof rx rz
    limits (-45.0 90.0)
           (-20.0 70.0)
  end
  begin
     id 10 
     name rtoes
     direction -1.53583e-011 -4.21993e-011 1   
     length 0.846859   
     axis -90 -7.62852e-016 -20   XYZ
    dof rx
    limits (-90.0 20.0)
  end
  begin
     id 11 
     name lowerback
     direction -0.00119603 0.996364 -0.0851956   
     length 1.67242   
     axis 0 0 0   XYZ
    dof rx ry rz
    limits (-20.0 45.0)
           (-30.0 30.0)
           (-30.0 30.0)
  end
  begin
     id 12 
     name upperback
     direction -0.00531001 0.998318 0.0577248   
     length 1.64819   
     axis 0 0 0   XYZ
    dof rx ry rz
    limits (-20.0 45.0)
           (-30.0 30.0)
           (-30.0 30.0)
  end
  begin
     id 13 
     name thorax
     direction -0.00653676 0.995132 0.0983291   
     length 1.67429   
     axis 0 0 0   XYZ
    dof rx ry rz
    limits (-20.0 45.0)
           (-30.0 30.0)
           (-30.0 30.0)
  end
  begin
     id 14 
     name lowerneck
     direction 0.0141424 0.999886 0.00525412   
     length 1.59623   
     axis 0 0 0   XYZ
    dof rx ry rz
    limits (-20.0 45.0)
           (-30.0 30.0)
           (-30.0 30.0)
  end
  begin
     id 15 
     name upperneck
     direction -0.0640064 0.987178 -0.146232   
     length 1.59576   
     axis 0 0 0   XYZ
    dof rx ry rz
    limits (-20.0 45.0)
           (-30.0 30.0)
           (-30.0 30.0)
  end
  begin
     id 16
     name head
     direction -0.0222942 0.998496 -0.0500859  
     length 1.60959  
     axis 0 0 0   XYZ
    dof rx ry rz
    limits (-20.0 45.0)
           (-30.0 30.0)
           (-30.0 30.0)
  end
  begin
     id 17 
     name lclavicle
     direction 0.908549 0.392612 0.142806  
     length 2.80649  
     axis 0 0 0   XYZ
    dof ry rz
    limits (-20.0 10.0)
           (0.0 20.0)
  end
  begin
     id 18 
     name lhumerus
     direction 1 -4.48968e-011 1.08832e-028   
     length 4.2884   
     axis -180 -30 -90   XYZ
    dof rx ry rz
    limits (-60.0 90.0)
           (-90.0 90.0)
           (-90.0 90.0)
  end
  begin
     id 19
     name lradius
     direction 1 -4.48952e-011 -3.02642e-028   
     length 3.06552   
     axis -180 -30 -90   XYZ
    dof rx
    limits (-10.0 170.0)
  end
  begin
     id 20
     name lwrist
     direction 1 -4.49014e-011 1.58672e-027   
     length 1.53276   
     axis -1.65735e-015 90 90   XYZ
    dof ry
    limits (-180.0 0.0)
 end
  begin
     id 21 
     name lhand
     direction 1 -4.48928e-011 3.17344e-027   
     length 0.753045   
     axis -2.02492e-015 90 90   XYZ
    dof rx rz
    limits (-90.0 90.0)
           (-45.0 45.0)
  end
  begin
     id 22 
     name lfingers
     direction 1 -4.48958e-011 6.34687e-027   
     length 0.607124   
     axis -4.04985e-015 90 90   XYZ
    dof rx
    limits (0.0 90.0)
  end
  begin
     id 23
     name lthumb
     direction 0.707107 -6.34905e-011 0.707107   
     length 0.871712   
     axis -90 45 2.85299e-015   XYZ
    dof rx rz
    limits (-45.0 45.0)
           (-45.0 45.0)
  end
  begin
     id 24 
     name rclavicle
     direction -0.885098 0.45949 0.0739604   
     length 2.9478  
     axis 0 0 0   XYZ 
    dof ry rz
    limits (-10.0 20.0)
           (-20.0 0.0)
  end
  begin
     id 25 
     name rhumerus
     direction -1 -4.4898e-011 -2.61739e-027  
     length 4.52172   
     axis -180 30 90   XYZ
    dof rx ry rz
    limits (-90.0 60.0)
           (-90.0 90.0)
           (-90.0 90.0)
  end
  begin
     id 26 
     name rradius
     direction -1 -4.48945e-011 9.02552e-028   
     length 2.8914   
     axis -180 30 90   XYZ
    dof rx
    limits (-10.0 170.0)
  end
  begin
     id 27 
     name rwrist
     direction -1 -4.49018e-011 1.58672e-027   
     length 1.4457   
     axis -1.65735e-015 -90 -90   XYZ
    dof ry
    limits (-180.0 0.0)
  end
  begin
     id 28
     name rhand
     direction -1 -4.48825e-011 3.17344e-027   
     length 0.680541   
     axis -2.02492e-015 -90 -90   XYZ
    dof rx rz
    limits (-90.0 90.0)
           (-45.0 45.0)
  end
  begin
     id 29
     name rfingers
     direction -1 -4.49067e-011 6.34687e-027   
     length 0.54867   
     axis -4.04985e-015 -90 -90   XYZ
    dof rx
    limits (0.0 90.0)
  end
  begin
     id 30
     name rthumb
     direction -0.707107 -6.34833e-011 0.707107   
     length 0.787783   
     axis -90 -45 -2.85299e-015   XYZ
    dof rx rz
    limits (-45.0 45.0)
           (-45.0 45.0)
  end
:hierarchy
  begin
    root lhipjoint rhipjoint lowerback
    lhipjoint lfemur
    lfemur ltibia
    ltibia lfoot
    lfoot ltoes
    rhipjoint rfemur
    rfemur rtibia
    rtibia rfoot
    rfoot rtoes
    lowerback upperback
    upperback thorax
    thorax lowerneck lclavicle rclavicle
    lowerneck upperneck
    upperneck head
    lclavicle lhumerus
    lhumerus lradius
    lradius lwrist
    lwrist lhand lthumb
    lhand lfingers
    rclavicle rhumerus
    rhumerus rradius
    rradius rwrist
    rwrist rhand rthumb
    rhand rfingers
  end

#!OML:ASF E:\emotionWalksFemale\Project 1\Capture day 1\Session 1\Female1.ASF
:FULLY-SPECIFIED
:DEGREES
1
root 8.48744 15.534 22.9446 -179.242 0.452945 -179.897
lowerback 4.40637 1.18783 0.831808
upperback -4.39503 1.77147 -0.103392
thorax -7.02986 0.877977 -0.764918
lowerneck -7.52121 -1.45079 -4.77891
upperneck 15.6811 -2.56142 4.57901
head 6.09649 -1.38421 2.02869
rclavicle 1.7316e-016 -2.68981e-015
rhumerus -49.5586 20.5416 -103.302
rradius 34.9853
rwrist 9.11658
rhand -17.741 -74.3721
rfingers 7.12502
rthumb -171.48 -75.8198
lclavicle 1.7316e-016 -2.68981e-015
lhumerus -44.557 -10.1115 94.79
lradius 36.1591
lwrist -10.2932
lhand -4.63552 -19.5252
lfingers 7.12502
lthumb 21.1436 9.3419
rfemur 1.75161 18.1154 27.1671
rtibia 13.7169
rfoot -16.9028 -31.9277
rtoes 4.60515
lfemur -4.27107 -21.7153 -25.5506
ltibia 20.4038
lfoot -21.3507 19.4174
ltoes -18.7185
2
root 8.48857 15.5215 22.9432 -179.56 -0.226905 -179.863
lowerback 4.62661 1.07256 0.82998
upperback -4.27121 1.39746 -0.0232437
thorax -7.03236 0.600835 -0.632701
lowerneck -7.61696 -1.41264 -4.92679
upperneck 15.8021 -2.49705 4.60629
head 6.15008 -1.3601 2.06659
rclavicle -1.47287e-014 -1.2424e-016
rhumerus -48.9226 19.9016 -102.23
rradius 34.8345
rwrist 12.3474
rhand -14.3222 -69.0448
rfingers 7.12502
rthumb -168.182 -81.3086
lclavicle -1.47287e-014 -1.2424e-016
lhumerus -44.493 -9.97361 94.8424
lradius 36.0975
lwrist -10.3026
lhand -4.34728 -23.5571
lfingers 7.12502
lthumb 21.4204 5.27873
rfemur 2.17816 18.0944 27.4512
rtibia 13.7809
rfoot -17.7205 -32.4648
rtoes 6.41003
lfemur -3.97399 -21.8952 -25.5995
ltibia 20.5179
lfoot -21.1569 19.191
ltoes -19.5025
3
root 8.48912 15.5276 22.9488 -179.316 0.471253 -179.831
lowerback 4.51355 1.17023 0.755553
upperback -4.35576 1.74695 0.0234918
thorax -7.0567 0.871603 -0.589199
lowerneck -7.63342 -1.39651 -4.93896
upperneck 15.8223 -2.47572 4.61772
head 6.15846 -1.34972 2.07387
rclavicle 1.58686e-014 -4.96962e-017
rhumerus -48.378 19.0539 -101.193
rradius 34.726
rwrist 15.8035
rhand -10.8275 -63.287
rfingers 7.12502
rthumb -164.813 -87.2903
lclavicle 1.58686e-014 -4.96962e-017
lhumerus -44.4328 -9.93487 94.8533
lradius 36.0522
lwrist -10.3666
lhand -3.94941 -27.3854
lfingers 7.12502
lthumb 21.8025 1.40647
rfemur 1.75147 18.1826 27.27
rtibia 13.7952
rfoot -17.3245 -31.953
rtoes 5.58575
lfemur -4.2052 -21.6833 -25.5149
ltibia 20.4904
lfoot -21.3179 19.5865
ltoes -19.2436
4
root 8.48904 15.5347 22.953 -179.075 0.961159 -179.805
lowerback 4.38976 1.3489 0.758675
upperback -4.45649 1.99374 0.00297426
thorax -7.08832 0.995566 -0.636815
lowerneck -7.62975 -1.41553 -4.83188
upperneck 15.8198 -2.50649 4.55439
head 6.15671 -1.36315 2.03348
rclavicle 3.19174e-014 4.29872e-015
rhumerus -47.4456 17.2215 -99.2904
rradius 34.533
rwrist 22.619
rhand -3.65526 -50.2513
rfingers 7.12502
rthumb -157.915 -259.01
lclavicle 3.19174e-014 4.29872e-015
lhumerus -44.4486 -10.0079 94.8661
lradius 36.0341
lwrist -10.3775
lhand -3.38705 -32.8355
lfingers 7.12502
lthumb 22.3425 -4.10734
rfemur 1.35969 18.2253 27.1242
rtibia 13.8473
rfoot -17.1771 -31.6044
rtoes 5.22868
lfemur -4.48389 -21.5302 -25.4128
ltibia 20.4981
lfoot -21.4502 19.7618
ltoes -18.5632
5
root 8.4892 15.5324 22.9493 -179.18 0.253276 -179.846
lowerback 4.41231 1.11611 0.789407
upperback -4.42666 1.67946 -0.0307422
thorax -7.07199 0.837573 -0.656626
lowerneck -7.61283 -1.41816 -4.7977
upperneck 15.8182 -2.51157 4.52591
head 6.15282 -1.36625 2.01839
rclavicle -2.3587e-014 -4.4975e-015
rhumerus -47.4798 17.197 -99.3332
rradius 34.5022
rwrist 22.9658
rhand -3.33593 -50.2906
rfingers 7.12502
rthumb -157.608 -259.013
lclavicle -2.3587e-014 -4.4975e-015
lhumerus -44.48 -10.0406 94.878
lradius 36.0261
lwrist -10.3846
lhand -2.88499 -37.918
lfingers 7.12502
lthumb 22.8243 -9.2485
rfemur 1.59137 18.0349 27.2328
rtibia 13.8732
rfoot -17.6533 -32.0535
rtoes 6.32343
lfemur -4.40484 -21.7118 -25.4345
ltibia 20.4787
lfoot -21.1836 19.3378
ltoes -19.2072
6
root 8.48949 15.5329 22.9559 -179.141 0.823936 -179.847
lowerback 4.51061 1.31333 0.733097
upperback -4.46754 1.94354 -0.0100982
thorax -7.17131 0.970626 -0.634698
lowerneck -7.6283 -1.41287 -4.79006
upperneck 15.8704 -2.50052 4.47302
head 6.17079 -1.36537 2.00108
rclavicle -5.8921e-015 -8.94531e-016
rhumerus -47.5273 17.271 -99.4108
rradius 34.4948
rwrist 22.9249
rhand -3.23378 -50.1539
rfingers 7.12502
rthumb -157.51 -258.864
lclavicle -5.8921e-015 -8.94531e-016
lhumerus -44.4632 -10.011 94.9063
lradius 35.9897
lwrist -10.4165
lhand -3.19093 -37.8401
lfingers 7.12502
lthumb 22.5307 -9.1347
rfemur 1.42424 17.8748 27.0731
rtibia 13.866
rfoot -17.24 -31.3763
rtoes 5.1937
lfemur -4.41884 -21.5069 -25.4681
ltibia 20.4845
lfoot -21.2882 19.6649
ltoes -19.1025
7
root 8.49119 15.5308 22.9554 -179.193 0.58934 -179.813
lowerback 4.55605 1.2459 0.730563
upperback -4.46878 1.85446 0.0123272
thorax -7.20107 0.92719 -0.601733
lowerneck -7.61649 -1.41242 -4.77045
upperneck 15.9267 -2.50112 4.41988
head 6.18573 -1.37067 1.98089
rclavicle -1.32627e-015 -7.20594e-016
rhumerus -47.5933 17.3308 -99.5035
rradius 34.4684
rwrist 22.832
rhand -3.16368 -49.9814
rfingers 7.12502
rthumb -157.443 -258.684
lclavicle -1.32627e-015 -7.20594e-016
lhumerus -44.4963 -10.0234 94.9507
lradius 35.9757
lwrist -10.4054
lhand -3.33336 -37.833
lfingers 7.12502
lthumb 22.394 -9.11103
rfemur 1.53546 17.8258 27.1665
rtibia 13.8158
rfoot -17.3746 -31.5036
rtoes 5.00383
lfemur -4.38864 -21.5677 -25.4239
ltibia 20.5303
lfoot -21.3728 19.4823
ltoes -18.9702
8
root 8.49207 15.5313 22.9566 -179.185 0.535187 -179.781
lowerback 4.57961 1.21845 0.741303
upperback -4.48036 1.82091 0.0346415
thorax -7.22801 0.9108 -0.581742
lowerneck -7.63057 -1.40693 -4.79349
upperneck 15.9364 -2.48816 4.41008
head 6.19083 -1.36622 1.98255
rclavicle -1.10139e-014 -2.23633e-015
rhumerus -47.6907 17.5636 -99.7058
rradius 34.4029
rwrist 22.579
rhand -3.12756 -49.9707
rfingers 7.12502
rthumb -157.408 -258.669
lclavicle -1.10139e-014 -2.23633e-015
lhumerus -44.5402 -10.0565 94.997
lradius 36.0226
lwrist -10.3259
lhand -3.35919 -37.7748
lfingers 7.12502
lthumb 22.3692 -9.0499
rfemur 1.53472 17.8104 27.2086
rtibia 13.7818
rfoot -17.2881 -31.5712
rtoes 4.93261
lfemur -4.41872 -21.5806 -25.3709
ltibia 20.5655
lfoot -21.4566 19.406
ltoes -18.4828
9
root 8.49095 15.5326 22.9577 -179.178 0.451099 -179.775
lowerback 4.60177 1.19308 0.775345
upperback -4.48436 1.78992 0.0350111
thorax -7.24459 0.893667 -0.597773
lowerneck -7.65846 -1.41086 -4.83834
upperneck 15.9609 -2.49085 4.43173
head 6.20433 -1.36838 1.99659
rclavicle 8.2185e-015 1.04362e-015
rhumerus -47.7146 17.7489 -99.8757
rradius 34.238
rwrist 22.4694
rhand -2.3018 -50.2117
rfingers 7.12502
rthumb -156.616 -258.811
lclavicle 8.2185e-015 1.04362e-015
lhumerus -44.552 -10.0791 95.0332
lradius 36.0367
lwrist -10.262
lhand -3.41491 -37.7213
lfingers 7.12502
lthumb 22.3157 -8.98995
rfemur 1.55805 17.7538 27.2095
rtibia 13.6992
rfoot -17.0824 -31.6288
rtoes 4.62458
lfemur -4.46256 -21.5831 -25.3555
ltibia 20.604
lfoot -21.3946 19.3662
ltoes -18.5664
10
root 8.49156 15.5358 22.9629 -179.077 1.00429 -179.734
lowerback 4.63006 1.39836 0.772125
upperback -4.5519 2.07052 0.0389526
thorax -7.32981 1.03287 -0.624339
lowerneck -7.64589 -1.41438 -4.85103
upperneck 16.0277 -2.5099 4.46996
head 6.22462 -1.37848 2.00946
rclavicle 4.93856e-015 1.76421e-015
rhumerus -47.6835 17.6583 -99.8557
rradius 34.171
rwrist 22.9345
rhand -0.6621 -50.4929
rfingers 7.12502
rthumb -155.044 -258.883
lclavicle 4.93856e-015 1.76421e-015
lhumerus -44.5744 -10.1283 95.057
lradius 36.0219
lwrist -10.2293
lhand -3.38258 -37.7769
lfingers 7.12502
lthumb 22.3468 -9.04924
rfemur 1.33892 17.8394 27.1195
rtibia 13.6869
rfoot -16.5568 -31.2542
rtoes 3.24484
lfemur -4.56346 -21.4027 -25.3052
ltibia 20.5987
lfoot -21.4342 19.6658
ltoes -17.9627
